<svg width="109" height="24" viewBox="0 0 109 24" fill="none" xmlns="http://www.w3.org/2000/svg">
<rect x="0.0311432" y="0.883545" width="108.002" height="22.9619" rx="6" fill="#F9E26E"/>
<path d="M32.6905 7.85803V14.3248C32.6905 15.013 32.5379 15.6351 32.2325 16.191C31.9317 16.7425 31.4737 17.18 30.8585 17.5035C30.2478 17.8271 29.4776 17.9889 28.548 17.9889C27.2263 17.9889 26.2192 17.6517 25.5265 16.9772C24.8338 16.3027 24.4874 15.4095 24.4874 14.2975V7.85803H26.5997V13.9762C26.5997 14.8011 26.7683 15.3798 27.1056 15.7125C27.4428 16.0452 27.9418 16.2115 28.6026 16.2115C29.0675 16.2115 29.4435 16.1318 29.7306 15.9723C30.0222 15.8128 30.2364 15.5667 30.3731 15.234C30.5099 14.9013 30.5782 14.4775 30.5782 13.9625V7.85803H32.6905ZM40.3058 15.5826C40.3058 16.1022 40.1827 16.542 39.9366 16.902C39.6951 17.2574 39.3328 17.5286 38.8497 17.7155C38.3666 17.8977 37.7651 17.9889 37.045 17.9889C36.5118 17.9889 36.0538 17.9547 35.671 17.8864C35.2927 17.818 34.9099 17.7041 34.5226 17.5446V15.8219C34.9373 16.0087 35.3816 16.1637 35.8556 16.2867C36.3341 16.4052 36.7534 16.4645 37.1134 16.4645C37.519 16.4645 37.8084 16.4052 37.9815 16.2867C38.1593 16.1637 38.2481 16.0042 38.2481 15.8082C38.2481 15.6806 38.2117 15.5667 38.1388 15.4664C38.0704 15.3616 37.92 15.2454 37.6876 15.1178C37.4552 14.9856 37.0906 14.8147 36.5938 14.6051C36.1153 14.4046 35.7211 14.2018 35.4112 13.9967C35.1059 13.7916 34.878 13.5501 34.7276 13.2721C34.5818 12.9895 34.5089 12.6318 34.5089 12.1989C34.5089 11.4925 34.7823 10.9615 35.3292 10.6061C35.8806 10.2461 36.6166 10.066 37.5372 10.066C38.0112 10.066 38.4623 10.1139 38.8907 10.2096C39.3237 10.3053 39.768 10.458 40.2237 10.6676L39.5948 12.1715C39.2166 12.0074 38.8588 11.873 38.5216 11.7682C38.1889 11.6634 37.8494 11.611 37.503 11.611C37.1977 11.611 36.9675 11.652 36.8126 11.734C36.6577 11.816 36.5802 11.9414 36.5802 12.11C36.5802 12.233 36.6189 12.3424 36.6964 12.4381C36.7784 12.5338 36.9334 12.6409 37.1612 12.7594C37.3937 12.8733 37.7332 13.0214 38.1798 13.2037C38.6127 13.3815 38.9887 13.5683 39.3077 13.7643C39.6267 13.9557 39.8728 14.1949 40.046 14.4821C40.2192 14.7646 40.3058 15.1315 40.3058 15.5826ZM48.9464 10.2096V17.8522H47.3468L47.0665 16.8746H46.9571C46.7931 17.1344 46.588 17.3463 46.3419 17.5104C46.0958 17.6744 45.8246 17.7952 45.5284 17.8727C45.2322 17.9502 44.9246 17.9889 44.6056 17.9889C44.0587 17.9889 43.5825 17.8932 43.1769 17.7018C42.7713 17.5058 42.4545 17.2028 42.2267 16.7926C42.0034 16.3824 41.8917 15.8492 41.8917 15.193V10.2096H43.9767V14.6735C43.9767 15.2203 44.0746 15.6328 44.2706 15.9108C44.4666 16.1888 44.7787 16.3278 45.2071 16.3278C45.631 16.3278 45.9636 16.2321 46.2052 16.0406C46.4467 15.8447 46.6153 15.5599 46.711 15.1862C46.8113 14.8079 46.8614 14.3476 46.8614 13.8053V10.2096H48.9464ZM54.2647 10.0524C55.2901 10.0524 56.0763 10.2757 56.6231 10.7223C57.17 11.1689 57.4435 11.8479 57.4435 12.7594V17.8522H55.9874L55.5841 16.8131H55.5294C55.3106 17.0865 55.0873 17.3099 54.8595 17.483C54.6316 17.6562 54.3696 17.7838 54.0733 17.8658C53.7771 17.9479 53.4171 17.9889 52.9933 17.9889C52.5421 17.9889 52.1365 17.9023 51.7765 17.7291C51.421 17.5559 51.1407 17.2916 50.9356 16.9362C50.7306 16.5761 50.628 16.1204 50.628 15.569C50.628 14.7578 50.9129 14.1608 51.4825 13.778C52.0522 13.3906 52.9067 13.1764 54.046 13.1354L55.3722 13.0944V12.7594C55.3722 12.3584 55.2674 12.0644 55.0577 11.8776C54.8481 11.6907 54.5564 11.5973 54.1827 11.5973C53.8136 11.5973 53.4513 11.6497 53.0958 11.7545C52.7403 11.8593 52.3849 11.9915 52.0294 12.151L51.339 10.7428C51.7446 10.5286 52.198 10.36 52.6993 10.2369C53.2052 10.1139 53.727 10.0524 54.2647 10.0524ZM55.3722 14.3112L54.5655 14.3385C53.891 14.3567 53.4216 14.4775 53.1573 14.7008C52.8976 14.9241 52.7677 15.2181 52.7677 15.5826C52.7677 15.9017 52.8611 16.1295 53.048 16.2662C53.2348 16.3984 53.4786 16.4645 53.7794 16.4645C54.226 16.4645 54.602 16.3323 54.9073 16.068C55.2172 15.8037 55.3722 15.4277 55.3722 14.9401V14.3112ZM63.8624 10.066C63.9672 10.066 64.088 10.0729 64.2247 10.0865C64.366 10.0957 64.4799 10.1093 64.5665 10.1276L64.4093 12.0826C64.3409 12.0599 64.2429 12.0439 64.1153 12.0348C63.9923 12.0211 63.8852 12.0143 63.794 12.0143C63.5252 12.0143 63.2631 12.0485 63.0079 12.1168C62.7573 12.1852 62.5317 12.2968 62.3312 12.4518C62.1306 12.6022 61.9711 12.8027 61.8526 13.0533C61.7387 13.2994 61.6817 13.6025 61.6817 13.9625V17.8522H59.5968V10.2096H61.1759L61.4835 11.4948H61.586C61.7364 11.235 61.9233 10.998 62.1466 10.7838C62.3744 10.5651 62.6319 10.3919 62.919 10.2643C63.2107 10.1321 63.5252 10.066 63.8624 10.066ZM68.0392 10.2096V17.8522H65.9542V10.2096H68.0392ZM67.0001 7.21545C67.31 7.21545 67.5766 7.28837 67.7999 7.4342C68.0232 7.57548 68.1349 7.84208 68.1349 8.23401C68.1349 8.62138 68.0232 8.89026 67.7999 9.04065C67.5766 9.18648 67.31 9.2594 67.0001 9.2594C66.6856 9.2594 66.4168 9.18648 66.1935 9.04065C65.9747 8.89026 65.8653 8.62138 65.8653 8.23401C65.8653 7.84208 65.9747 7.57548 66.1935 7.4342C66.4168 7.28837 66.6856 7.21545 67.0001 7.21545ZM77.1788 14.0172C77.1788 14.6552 77.0922 15.2203 76.919 15.7125C76.7504 16.2047 76.5021 16.6217 76.1739 16.9635C75.8504 17.3007 75.4584 17.5559 74.9981 17.7291C74.5424 17.9023 74.0274 17.9889 73.4532 17.9889C72.9155 17.9889 72.421 17.9023 71.9698 17.7291C71.5232 17.5559 71.1336 17.3007 70.8009 16.9635C70.4728 16.6217 70.2175 16.2047 70.0353 15.7125C69.8575 15.2203 69.7687 14.6552 69.7687 14.0172C69.7687 13.1696 69.919 12.4518 70.2198 11.8639C70.5206 11.276 70.949 10.8294 71.505 10.524C72.061 10.2187 72.7241 10.066 73.4942 10.066C74.2097 10.066 74.8432 10.2187 75.3946 10.524C75.9506 10.8294 76.3858 11.276 76.7003 11.8639C77.0193 12.4518 77.1788 13.1696 77.1788 14.0172ZM71.8946 14.0172C71.8946 14.5185 71.9493 14.9401 72.0587 15.2819C72.1681 15.6237 72.339 15.8811 72.5714 16.0543C72.8038 16.2275 73.1069 16.3141 73.4806 16.3141C73.8497 16.3141 74.1482 16.2275 74.3761 16.0543C74.6085 15.8811 74.7771 15.6237 74.8819 15.2819C74.9913 14.9401 75.046 14.5185 75.046 14.0172C75.046 13.5114 74.9913 13.0921 74.8819 12.7594C74.7771 12.4222 74.6085 12.1692 74.3761 12.0006C74.1437 11.832 73.8406 11.7477 73.4669 11.7477C72.9155 11.7477 72.5144 11.9368 72.2638 12.3151C72.0177 12.6933 71.8946 13.2607 71.8946 14.0172ZM84.2335 15.5826C84.2335 16.1022 84.1105 16.542 83.8644 16.902C83.6228 17.2574 83.2605 17.5286 82.7774 17.7155C82.2944 17.8977 81.6928 17.9889 80.9728 17.9889C80.4396 17.9889 79.9815 17.9547 79.5987 17.8864C79.2205 17.818 78.8377 17.7041 78.4503 17.5446V15.8219C78.865 16.0087 79.3093 16.1637 79.7833 16.2867C80.2618 16.4052 80.6811 16.4645 81.0411 16.4645C81.4467 16.4645 81.7361 16.4052 81.9093 16.2867C82.087 16.1637 82.1759 16.0042 82.1759 15.8082C82.1759 15.6806 82.1394 15.5667 82.0665 15.4664C81.9981 15.3616 81.8478 15.2454 81.6153 15.1178C81.3829 14.9856 81.0183 14.8147 80.5216 14.6051C80.0431 14.4046 79.6489 14.2018 79.339 13.9967C79.0336 13.7916 78.8058 13.5501 78.6554 13.2721C78.5095 12.9895 78.4366 12.6318 78.4366 12.1989C78.4366 11.4925 78.7101 10.9615 79.2569 10.6061C79.8084 10.2461 80.5444 10.066 81.4649 10.066C81.9389 10.066 82.3901 10.1139 82.8185 10.2096C83.2514 10.3053 83.6957 10.458 84.1515 10.6676L83.5226 12.1715C83.1443 12.0074 82.7866 11.873 82.4493 11.7682C82.1166 11.6634 81.7771 11.611 81.4308 11.611C81.1254 11.611 80.8953 11.652 80.7403 11.734C80.5854 11.816 80.5079 11.9414 80.5079 12.11C80.5079 12.233 80.5466 12.3424 80.6241 12.4381C80.7062 12.5338 80.8611 12.6409 81.089 12.7594C81.3214 12.8733 81.6609 13.0214 82.1075 13.2037C82.5405 13.3815 82.9164 13.5683 83.2355 13.7643C83.5545 13.9557 83.8006 14.1949 83.9737 14.4821C84.1469 14.7646 84.2335 15.1315 84.2335 15.5826Z" fill="#2C2C2C"/>
</svg>
