<svg width="21" height="20" viewBox="0 0 21 20" fill="none" xmlns="http://www.w3.org/2000/svg">
<circle cx="10.6582" cy="10" r="10" fill="#37BCFF"/>
<path d="M14.5254 4.96875V12.3594C14.5254 13.1667 14.3613 13.8854 14.0332 14.5156C13.7103 15.1458 13.2207 15.6432 12.5645 16.0078C11.9082 16.3672 11.0853 16.5469 10.0957 16.5469C8.68424 16.5469 7.60872 16.1641 6.86914 15.3984C6.13477 14.6328 5.76758 13.6094 5.76758 12.3281V4.96875H7.10352V12.3672C7.10352 13.3359 7.35872 14.0833 7.86914 14.6094C8.38477 15.1354 9.15299 15.3984 10.1738 15.3984C10.8717 15.3984 11.4421 15.2734 11.8848 15.0234C12.3327 14.7682 12.6634 14.4141 12.877 13.9609C13.0957 13.5026 13.2051 12.974 13.2051 12.375V4.96875H14.5254Z" fill="#F3F5F7"/>
</svg>
