<svg width="109" height="25" viewBox="0 0 109 25" fill="none" xmlns="http://www.w3.org/2000/svg">
<rect x="0.702942" y="0.818237" width="107.54" height="23.2014" rx="6" fill="#5CE6A8"/>
<path d="M19.5412 17.4822H13.7854V7.48804H19.5412V9.22437H15.9045V11.4187H19.2883V13.155H15.9045V15.7322H19.5412V17.4822ZM28.3117 17.4822H26.2268V13.0183C26.2268 12.4669 26.1333 12.0544 25.9465 11.781C25.7642 11.503 25.4748 11.364 25.0783 11.364C24.5451 11.364 24.1578 11.56 23.9162 11.9519C23.6747 12.3438 23.5539 12.9887 23.5539 13.8865V17.4822H21.469V9.8396H23.0617L23.342 10.8171H23.4582C23.6633 10.4662 23.9595 10.1928 24.3469 9.99683C24.7343 9.79631 25.1786 9.69604 25.6799 9.69604C26.8238 9.69604 27.5985 10.0697 28.0041 10.8171H28.1887C28.3938 10.4617 28.6945 10.186 29.091 9.98999C29.4921 9.79403 29.9432 9.69604 30.4445 9.69604C31.3104 9.69604 31.9644 9.91935 32.4065 10.366C32.8531 10.808 33.0764 11.519 33.0764 12.4988V17.4822H30.9846V13.0183C30.9846 12.4669 30.8912 12.0544 30.7043 11.781C30.522 11.503 30.2326 11.364 29.8361 11.364C29.3257 11.364 28.9429 11.5463 28.6877 11.9109C28.4371 12.2755 28.3117 12.8542 28.3117 13.6472V17.4822ZM39.4201 17.6189C38.5223 17.6189 37.8182 17.2931 37.3078 16.6414H37.1984C37.2714 17.2794 37.3078 17.6485 37.3078 17.7488V20.8455H35.2229V9.8396H36.9182L37.2121 10.8308H37.3078C37.7955 10.0743 38.5178 9.69604 39.4748 9.69604C40.3772 9.69604 41.0835 10.0447 41.594 10.7419C42.1044 11.4392 42.3596 12.4076 42.3596 13.6472C42.3596 14.463 42.2388 15.1716 41.9973 15.7732C41.7603 16.3748 41.4208 16.8328 40.9787 17.1472C40.5367 17.4617 40.0171 17.6189 39.4201 17.6189ZM38.8049 11.364C38.2899 11.364 37.9139 11.5235 37.677 11.8425C37.44 12.157 37.3169 12.6788 37.3078 13.408V13.6335C37.3078 14.4539 37.4286 15.0417 37.6701 15.3972C37.9162 15.7527 38.3036 15.9304 38.8322 15.9304C39.7665 15.9304 40.2336 15.1602 40.2336 13.6199C40.2336 12.8679 40.1174 12.3051 39.885 11.9314C39.6571 11.5531 39.2971 11.364 38.8049 11.364ZM48.3479 9.69604C48.6304 9.69604 48.8651 9.71655 49.052 9.75757L48.8947 11.7126C48.7261 11.6671 48.521 11.6443 48.2795 11.6443C47.6141 11.6443 47.0946 11.8152 46.7209 12.157C46.3518 12.4988 46.1672 12.9773 46.1672 13.5925V17.4822H44.0822V9.8396H45.6613L45.969 11.1248H46.0715C46.3085 10.6964 46.6275 10.3523 47.0285 10.0925C47.4341 9.82821 47.8739 9.69604 48.3479 9.69604ZM53.6047 11.1794C53.1626 11.1794 52.8163 11.3207 52.5656 11.6033C52.315 11.8813 52.1714 12.2778 52.135 12.7927H55.0608C55.0516 12.2778 54.9172 11.8813 54.6574 11.6033C54.3977 11.3207 54.0468 11.1794 53.6047 11.1794ZM53.8986 17.6189C52.6682 17.6189 51.7066 17.2794 51.0139 16.6003C50.3212 15.9213 49.9748 14.9597 49.9748 13.7156C49.9748 12.435 50.2938 11.446 50.9318 10.7488C51.5744 10.047 52.4608 9.69604 53.591 9.69604C54.6711 9.69604 55.5119 10.0037 56.1135 10.6189C56.715 11.2341 57.0158 12.0841 57.0158 13.1687V14.1804H52.0871C52.1099 14.7729 52.2854 15.2354 52.6135 15.5681C52.9416 15.9008 53.4019 16.0671 53.9943 16.0671C54.4546 16.0671 54.8899 16.0193 55.3 15.9236C55.7102 15.8279 56.1386 15.6752 56.5852 15.4656V17.0789C56.2206 17.2611 55.8309 17.3956 55.4162 17.4822C55.0015 17.5733 54.4956 17.6189 53.8986 17.6189ZM64.0432 15.2126C64.0432 15.9965 63.7697 16.5935 63.2229 17.0037C62.6805 17.4138 61.8671 17.6189 60.7824 17.6189C60.2264 17.6189 59.7525 17.5802 59.3606 17.5027C58.9686 17.4298 58.6018 17.3204 58.26 17.1746V15.4519C58.6473 15.6342 59.0826 15.7869 59.5656 15.9099C60.0533 16.033 60.4817 16.0945 60.8508 16.0945C61.6073 16.0945 61.9856 15.8757 61.9856 15.4382C61.9856 15.2742 61.9354 15.142 61.8352 15.0417C61.7349 14.9369 61.5617 14.8207 61.3156 14.6931C61.0695 14.561 60.7414 14.4083 60.3313 14.2351C59.7434 13.989 59.3104 13.7611 59.0324 13.5515C58.759 13.3419 58.5585 13.1026 58.4309 12.8337C58.3078 12.5603 58.2463 12.2253 58.2463 11.8289C58.2463 11.1498 58.5083 10.6257 59.0324 10.2566C59.5611 9.88289 60.3085 9.69604 61.2746 9.69604C62.1952 9.69604 63.0907 9.89657 63.9611 10.2976L63.3322 11.8015C62.9494 11.6375 62.5917 11.503 62.259 11.3982C61.9263 11.2934 61.5868 11.241 61.2404 11.241C60.6252 11.241 60.3176 11.4073 60.3176 11.74C60.3176 11.9268 60.4156 12.0886 60.6115 12.2253C60.8121 12.3621 61.2473 12.5649 61.9172 12.8337C62.5142 13.0753 62.9517 13.3009 63.2297 13.5105C63.5077 13.7201 63.7128 13.9617 63.8449 14.2351C63.9771 14.5085 64.0432 14.8344 64.0432 15.2126ZM70.5236 17.4822L70.1203 16.4431H70.0656C69.7147 16.8852 69.3524 17.1928 68.9787 17.366C68.6096 17.5346 68.1265 17.6189 67.5295 17.6189C66.7958 17.6189 66.217 17.4093 65.7932 16.99C65.3739 16.5707 65.1643 15.9737 65.1643 15.199C65.1643 14.3878 65.4468 13.7908 66.0119 13.408C66.5816 13.0206 67.4384 12.8064 68.5822 12.7654L69.9084 12.7244V12.3894C69.9084 11.6147 69.5119 11.2273 68.719 11.2273C68.1083 11.2273 67.3905 11.4119 66.5656 11.781L65.8752 10.3728C66.7548 9.91252 67.73 9.68237 68.801 9.68237C69.8264 9.68237 70.6125 9.90568 71.1594 10.3523C71.7063 10.7989 71.9797 11.4779 71.9797 12.3894V17.4822H70.5236ZM69.9084 13.9412L69.1018 13.9685C68.4956 13.9867 68.0445 14.0961 67.7483 14.2966C67.452 14.4972 67.3039 14.8025 67.3039 15.2126C67.3039 15.8005 67.6412 16.0945 68.3156 16.0945C68.7987 16.0945 69.1838 15.9555 69.4709 15.6775C69.7626 15.3995 69.9084 15.0304 69.9084 14.5701V13.9412ZM78.3986 9.69604C78.6812 9.69604 78.9159 9.71655 79.1027 9.75757L78.9455 11.7126C78.7769 11.6671 78.5718 11.6443 78.3303 11.6443C77.6649 11.6443 77.1454 11.8152 76.7717 12.157C76.4025 12.4988 76.218 12.9773 76.218 13.5925V17.4822H74.133V9.8396H75.7121L76.0197 11.1248H76.1223C76.3593 10.6964 76.6783 10.3523 77.0793 10.0925C77.4849 9.82821 77.9247 9.69604 78.3986 9.69604ZM80.4016 7.86401C80.4016 7.18498 80.7798 6.84546 81.5363 6.84546C82.2928 6.84546 82.6711 7.18498 82.6711 7.86401C82.6711 8.18758 82.5754 8.44051 82.384 8.6228C82.1971 8.80054 81.9146 8.8894 81.5363 8.8894C80.7798 8.8894 80.4016 8.54761 80.4016 7.86401ZM82.5754 17.4822H80.4904V9.8396H82.5754V17.4822ZM89.6233 17.4822L89.2199 16.4431H89.1652C88.8143 16.8852 88.452 17.1928 88.0783 17.366C87.7092 17.5346 87.2261 17.6189 86.6291 17.6189C85.8954 17.6189 85.3166 17.4093 84.8928 16.99C84.4735 16.5707 84.2639 15.9737 84.2639 15.199C84.2639 14.3878 84.5464 13.7908 85.1115 13.408C85.6812 13.0206 86.538 12.8064 87.6818 12.7654L89.008 12.7244V12.3894C89.008 11.6147 88.6115 11.2273 87.8186 11.2273C87.2079 11.2273 86.4901 11.4119 85.6652 11.781L84.9748 10.3728C85.8544 9.91252 86.8296 9.68237 87.9006 9.68237C88.926 9.68237 89.7121 9.90568 90.259 10.3523C90.8059 10.7989 91.0793 11.4779 91.0793 12.3894V17.4822H89.6233ZM89.008 13.9412L88.2014 13.9685C87.5953 13.9867 87.1441 14.0961 86.8479 14.2966C86.5516 14.4972 86.4035 14.8025 86.4035 15.2126C86.4035 15.8005 86.7408 16.0945 87.4152 16.0945C87.8983 16.0945 88.2834 15.9555 88.5705 15.6775C88.8622 15.3995 89.008 15.0304 89.008 14.5701V13.9412ZM95.3176 17.4822H93.2326V6.84546H95.3176V17.4822Z" fill="#2C2C2C"/>
</svg>
