<svg width="96" height="21" viewBox="0 0 96 21" fill="none" xmlns="http://www.w3.org/2000/svg">
<rect x="0.587891" y="0.0429688" width="95" height="20" rx="6" fill="#FF6565"/>
<path d="M21.9551 15.0156H17.2734V6.44922H21.9551V7H17.8711V10.2402H21.7266V10.791H17.8711V14.4648H21.9551V15.0156ZM31.7051 15.0156V10.8379C31.7051 10.2168 31.584 9.76367 31.3418 9.47852C31.0996 9.19336 30.7285 9.05078 30.2285 9.05078C29.5762 9.05078 29.0938 9.23047 28.7812 9.58984C28.4688 9.94922 28.3125 10.5137 28.3125 11.2832V15.0156H27.7207V10.6621C27.7207 9.58789 27.2285 9.05078 26.2441 9.05078C25.5762 9.05078 25.0898 9.24609 24.7852 9.63672C24.4805 10.0234 24.3281 10.6445 24.3281 11.5V15.0156H23.748V8.64648H24.2285L24.3516 9.51953H24.3867C24.5625 9.20312 24.8125 8.95898 25.1367 8.78711C25.4609 8.61133 25.8184 8.52344 26.209 8.52344C27.2129 8.52344 27.8574 8.90039 28.1426 9.6543H28.166C28.373 9.29102 28.6504 9.01172 28.998 8.81641C29.3496 8.62109 29.748 8.52344 30.1934 8.52344C30.8887 8.52344 31.4102 8.70898 31.7578 9.08008C32.1055 9.45117 32.2793 10.041 32.2793 10.8496V15.0156H31.7051ZM37.0664 15.1328C36.0859 15.1328 35.3711 14.7656 34.9219 14.0312H34.8809L34.8984 14.5234C34.9141 14.8125 34.9219 15.1289 34.9219 15.4727V17.8984H34.3418V8.64648H34.834L34.9453 9.55469H34.9805C35.418 8.86719 36.1172 8.52344 37.0781 8.52344C37.9375 8.52344 38.5918 8.80664 39.041 9.37305C39.4941 9.93555 39.7207 10.7559 39.7207 11.834C39.7207 12.8809 39.4824 13.6934 39.0059 14.2715C38.5332 14.8457 37.8867 15.1328 37.0664 15.1328ZM37.0547 14.6172C37.707 14.6172 38.2109 14.375 38.5664 13.8906C38.9258 13.4062 39.1055 12.7285 39.1055 11.8574C39.1055 9.98633 38.4297 9.05078 37.0781 9.05078C36.3359 9.05078 35.791 9.25586 35.4434 9.66602C35.0957 10.0723 34.9219 10.7363 34.9219 11.6582V11.8457C34.9219 12.8418 35.0879 13.5527 35.4199 13.9785C35.7559 14.4043 36.3008 14.6172 37.0547 14.6172ZM43.998 8.52344C44.2676 8.52344 44.5566 8.55078 44.8652 8.60547L44.7539 9.16211C44.4883 9.0957 44.2129 9.0625 43.9277 9.0625C43.3848 9.0625 42.9395 9.29297 42.5918 9.75391C42.2441 10.2148 42.0703 10.7969 42.0703 11.5V15.0156H41.4902V8.64648H41.9824L42.041 9.79492H42.082C42.3438 9.32617 42.623 8.99805 42.9199 8.81055C43.2168 8.61914 43.5762 8.52344 43.998 8.52344ZM48.7383 15.1328C47.8125 15.1328 47.0898 14.8477 46.5703 14.2773C46.0547 13.707 45.7969 12.9082 45.7969 11.8809C45.7969 10.8652 46.0469 10.0527 46.5469 9.44336C47.0469 8.83008 47.7207 8.52344 48.5684 8.52344C49.3184 8.52344 49.9102 8.78516 50.3438 9.30859C50.7773 9.83203 50.9941 10.543 50.9941 11.4414V11.9102H46.4062C46.4141 12.7852 46.6172 13.4531 47.0156 13.9141C47.418 14.375 47.9922 14.6055 48.7383 14.6055C49.1016 14.6055 49.4199 14.5801 49.6934 14.5293C49.9707 14.4785 50.3203 14.3691 50.7422 14.2012V14.7285C50.3828 14.8848 50.0508 14.9902 49.7461 15.0449C49.4414 15.1035 49.1055 15.1328 48.7383 15.1328ZM48.5684 9.03906C47.9551 9.03906 47.4629 9.24219 47.0918 9.64844C46.7207 10.0508 46.5039 10.6328 46.4414 11.3945H50.3789C50.3789 10.6562 50.2188 10.0801 49.8984 9.66602C49.5781 9.24805 49.1348 9.03906 48.5684 9.03906ZM56.7012 13.3574C56.7012 13.9277 56.4844 14.3672 56.0508 14.6758C55.6172 14.9805 55.002 15.1328 54.2051 15.1328C53.3535 15.1328 52.6777 15.002 52.1777 14.7402V14.1133C52.8184 14.4336 53.4941 14.5938 54.2051 14.5938C54.834 14.5938 55.3105 14.4902 55.6348 14.2832C55.9629 14.0723 56.127 13.793 56.127 13.4453C56.127 13.125 55.9961 12.8555 55.7344 12.6367C55.4766 12.418 55.0508 12.2031 54.457 11.9922C53.8203 11.7617 53.373 11.5645 53.1152 11.4004C52.8574 11.2324 52.6621 11.0449 52.5293 10.8379C52.4004 10.627 52.3359 10.3711 52.3359 10.0703C52.3359 9.59375 52.5352 9.2168 52.9336 8.93945C53.3359 8.66211 53.8965 8.52344 54.6152 8.52344C55.3027 8.52344 55.9551 8.65234 56.5723 8.91016L56.3555 9.4375C55.7305 9.17969 55.1504 9.05078 54.6152 9.05078C54.0957 9.05078 53.6836 9.13672 53.3789 9.30859C53.0742 9.48047 52.9219 9.71875 52.9219 10.0234C52.9219 10.3555 53.0391 10.6211 53.2734 10.8203C53.5117 11.0195 53.9746 11.2422 54.6621 11.4883C55.2363 11.6953 55.6543 11.8828 55.916 12.0508C56.1777 12.2148 56.373 12.4023 56.502 12.6133C56.6348 12.8242 56.7012 13.0723 56.7012 13.3574ZM62.209 15.0156L62.0625 14.0078H62.0156C61.6953 14.418 61.3652 14.709 61.0254 14.8809C60.6895 15.0488 60.291 15.1328 59.8301 15.1328C59.2051 15.1328 58.7188 14.9727 58.3711 14.6523C58.0234 14.332 57.8496 13.8887 57.8496 13.3223C57.8496 12.7012 58.1074 12.2188 58.623 11.875C59.1426 11.5312 59.8926 11.3496 60.873 11.3301L62.0859 11.2949V10.873C62.0859 10.2676 61.9629 9.81055 61.7168 9.50195C61.4707 9.19336 61.0742 9.03906 60.5273 9.03906C59.9375 9.03906 59.3262 9.20312 58.6934 9.53125L58.4766 9.02734C59.1758 8.69922 59.8672 8.53516 60.5508 8.53516C61.25 8.53516 61.7715 8.7168 62.1152 9.08008C62.4629 9.44336 62.6367 10.0098 62.6367 10.7793V15.0156H62.209ZM59.8652 14.6055C60.5449 14.6055 61.0801 14.4121 61.4707 14.0254C61.8652 13.6348 62.0625 13.0938 62.0625 12.4023V11.7754L60.9492 11.8223C60.0547 11.8652 59.416 12.0059 59.0332 12.2441C58.6543 12.4785 58.4648 12.8457 58.4648 13.3457C58.4648 13.7441 58.5859 14.0547 58.8281 14.2773C59.0742 14.4961 59.4199 14.6055 59.8652 14.6055ZM67.2129 8.52344C67.4824 8.52344 67.7715 8.55078 68.0801 8.60547L67.9688 9.16211C67.7031 9.0957 67.4277 9.0625 67.1426 9.0625C66.5996 9.0625 66.1543 9.29297 65.8066 9.75391C65.459 10.2148 65.2852 10.7969 65.2852 11.5V15.0156H64.7051V8.64648H65.1973L65.2559 9.79492H65.2969C65.5586 9.32617 65.8379 8.99805 66.1348 8.81055C66.4316 8.61914 66.791 8.52344 67.2129 8.52344ZM69.9609 15.0156H69.3809V8.64648H69.9609V15.0156ZM69.2988 6.87695C69.2988 6.50195 69.4219 6.31445 69.668 6.31445C69.7891 6.31445 69.8828 6.36328 69.9492 6.46094C70.0195 6.55859 70.0547 6.69727 70.0547 6.87695C70.0547 7.05273 70.0195 7.19141 69.9492 7.29297C69.8828 7.39453 69.7891 7.44531 69.668 7.44531C69.4219 7.44531 69.2988 7.25586 69.2988 6.87695ZM75.9668 15.0156L75.8203 14.0078H75.7734C75.4531 14.418 75.123 14.709 74.7832 14.8809C74.4473 15.0488 74.0488 15.1328 73.5879 15.1328C72.9629 15.1328 72.4766 14.9727 72.1289 14.6523C71.7812 14.332 71.6074 13.8887 71.6074 13.3223C71.6074 12.7012 71.8652 12.2188 72.3809 11.875C72.9004 11.5312 73.6504 11.3496 74.6309 11.3301L75.8438 11.2949V10.873C75.8438 10.2676 75.7207 9.81055 75.4746 9.50195C75.2285 9.19336 74.832 9.03906 74.2852 9.03906C73.6953 9.03906 73.084 9.20312 72.4512 9.53125L72.2344 9.02734C72.9336 8.69922 73.625 8.53516 74.3086 8.53516C75.0078 8.53516 75.5293 8.7168 75.873 9.08008C76.2207 9.44336 76.3945 10.0098 76.3945 10.7793V15.0156H75.9668ZM73.623 14.6055C74.3027 14.6055 74.8379 14.4121 75.2285 14.0254C75.623 13.6348 75.8203 13.0938 75.8203 12.4023V11.7754L74.707 11.8223C73.8125 11.8652 73.1738 12.0059 72.791 12.2441C72.4121 12.4785 72.2227 12.8457 72.2227 13.3457C72.2227 13.7441 72.3438 14.0547 72.5859 14.2773C72.832 14.4961 73.1777 14.6055 73.623 14.6055ZM79.043 15.0156H78.4629V5.89844H79.043V15.0156Z" fill="#F3F5F7"/>
</svg>
