<svg width="89" height="20" viewBox="0 0 89 20" fill="none" xmlns="http://www.w3.org/2000/svg">
<rect x="0.00195312" y="0.310547" width="88" height="19" rx="6" fill="#37BCFF"/>
<path d="M27.666 5.71875V11.2617C27.666 11.9297 27.5371 12.498 27.2793 12.9668C27.0215 13.4316 26.6504 13.7871 26.166 14.0332C25.6855 14.2793 25.1094 14.4023 24.4375 14.4023C23.418 14.4023 22.6348 14.127 22.0879 13.5762C21.541 13.0215 21.2676 12.2422 21.2676 11.2383V5.71875H21.8652V11.2383C21.8652 12.0977 22.0879 12.752 22.5332 13.2012C22.9824 13.6465 23.627 13.8691 24.4668 13.8691C25.0176 13.8691 25.4863 13.7715 25.873 13.5762C26.2598 13.377 26.5547 13.0879 26.7578 12.709C26.9609 12.3262 27.0625 11.8633 27.0625 11.3203V5.71875H27.666ZM33.8242 12.6152C33.8242 12.9941 33.7285 13.3184 33.5371 13.5879C33.3496 13.8535 33.0742 14.0566 32.7109 14.1973C32.3477 14.334 31.9004 14.4023 31.3691 14.4023C30.9277 14.4023 30.5332 14.3633 30.1855 14.2852C29.8379 14.207 29.5469 14.1113 29.3125 13.998V13.4121C29.6055 13.5566 29.9297 13.6738 30.2852 13.7637C30.6406 13.8535 31.0059 13.8984 31.3809 13.8984C32.0371 13.8984 32.5098 13.7871 32.7988 13.5645C33.0879 13.3418 33.2324 13.0371 33.2324 12.6504C33.2324 12.3965 33.1602 12.1875 33.0156 12.0234C32.875 11.8555 32.6719 11.7109 32.4062 11.5898C32.1406 11.4688 31.8203 11.3457 31.4453 11.2207C31.0547 11.0879 30.707 10.957 30.4023 10.8281C30.1016 10.6953 29.8652 10.5215 29.6934 10.3066C29.5215 10.0879 29.4355 9.79102 29.4355 9.41602C29.4355 8.9043 29.6406 8.50586 30.0508 8.2207C30.4609 7.93555 31.0117 7.79297 31.7031 7.79297C32.0859 7.79297 32.4414 7.83008 32.7695 7.9043C33.1016 7.97461 33.4023 8.06641 33.6719 8.17969L33.4609 8.68359C33.2188 8.57031 32.9395 8.47852 32.623 8.4082C32.3066 8.33789 31.9902 8.30273 31.6738 8.30273C31.1543 8.30273 30.748 8.39453 30.4551 8.57812C30.1621 8.76172 30.0156 9.03125 30.0156 9.38672C30.0156 9.66016 30.0859 9.875 30.2266 10.0312C30.3672 10.1836 30.5684 10.3125 30.8301 10.418C31.0918 10.5195 31.4023 10.6328 31.7617 10.7578C32.1328 10.8867 32.4746 11.0215 32.7871 11.1621C33.1035 11.3027 33.3555 11.4844 33.543 11.707C33.7305 11.9297 33.8242 12.2324 33.8242 12.6152ZM40.3809 7.91602V14.2852H39.9004L39.8125 13.1367H39.7773C39.668 13.3711 39.5137 13.584 39.3145 13.7754C39.1152 13.9668 38.8711 14.1191 38.582 14.2324C38.293 14.3457 37.957 14.4023 37.5742 14.4023C37.0859 14.4023 36.6758 14.3184 36.3438 14.1504C36.0156 13.9785 35.7676 13.7207 35.5996 13.377C35.4316 13.0332 35.3477 12.6035 35.3477 12.0879V7.91602H35.9395V12.0293C35.9395 12.666 36.082 13.1348 36.3672 13.4355C36.6562 13.7363 37.0781 13.8867 37.6328 13.8867C38.1016 13.8867 38.4941 13.7969 38.8105 13.6172C39.1309 13.4375 39.373 13.166 39.5371 12.8027C39.7051 12.4355 39.7891 11.9785 39.7891 11.4316V7.91602H40.3809ZM44.7461 7.80469C45.4453 7.80469 45.9688 7.98047 46.3164 8.33203C46.6641 8.68359 46.8379 9.24414 46.8379 10.0137V14.2852H46.3809L46.2754 13.1719H46.2402C46.1035 13.4102 45.9375 13.623 45.7422 13.8105C45.5469 13.9941 45.3066 14.1387 45.0215 14.2441C44.7402 14.3496 44.3965 14.4023 43.9902 14.4023C43.5801 14.4023 43.2285 14.334 42.9355 14.1973C42.6465 14.0605 42.4219 13.8613 42.2617 13.5996C42.1055 13.3379 42.0273 13.0195 42.0273 12.6445C42.0273 12.0117 42.2891 11.5312 42.8125 11.2031C43.3359 10.8711 44.0879 10.6836 45.0684 10.6406L46.252 10.582V10.1191C46.252 9.4668 46.123 9.00195 45.8652 8.72461C45.6074 8.44727 45.2266 8.30859 44.7227 8.30859C44.3945 8.30859 44.0781 8.35156 43.7734 8.4375C43.4727 8.51953 43.166 8.63867 42.8535 8.79492L42.666 8.30273C42.9707 8.1582 43.2969 8.03906 43.6445 7.94531C43.9961 7.85156 44.3633 7.80469 44.7461 7.80469ZM46.2461 11.0449L45.1328 11.0918C44.3242 11.1309 43.709 11.2754 43.2871 11.5254C42.8652 11.7754 42.6543 12.1504 42.6543 12.6504C42.6543 13.0527 42.7793 13.3613 43.0293 13.5762C43.2832 13.791 43.6348 13.8984 44.084 13.8984C44.7832 13.8984 45.3164 13.6992 45.6836 13.3008C46.0547 12.9023 46.2422 12.3594 46.2461 11.6719V11.0449ZM51.4199 7.80469C51.5879 7.80469 51.7461 7.81445 51.8945 7.83398C52.043 7.85352 52.1816 7.88086 52.3105 7.91602L52.2168 8.46094C52.0879 8.42578 51.957 8.40039 51.8242 8.38477C51.6914 8.36523 51.5488 8.35547 51.3965 8.35547C51.0957 8.35547 50.8262 8.41211 50.5879 8.52539C50.3535 8.63867 50.1543 8.80078 49.9902 9.01172C49.8262 9.22266 49.7012 9.47656 49.6152 9.77344C49.5293 10.0703 49.4863 10.4023 49.4863 10.7695V14.2852H48.8887V7.91602H49.3984L49.457 9.11719H49.4922C49.5898 8.87109 49.7266 8.65039 49.9023 8.45508C50.082 8.25586 50.2988 8.09766 50.5527 7.98047C50.8066 7.86328 51.0957 7.80469 51.4199 7.80469ZM54.1504 7.91602V14.2852H53.5586V7.91602H54.1504ZM53.8633 5.56055C54.0117 5.56055 54.1211 5.60547 54.1914 5.69531C54.2617 5.78125 54.2969 5.89844 54.2969 6.04688C54.2969 6.19531 54.2617 6.3125 54.1914 6.39844C54.1211 6.48438 54.0117 6.52734 53.8633 6.52734C53.7227 6.52734 53.6172 6.48438 53.5469 6.39844C53.4766 6.3125 53.4414 6.19531 53.4414 6.04688C53.4414 5.89844 53.4766 5.78125 53.5469 5.69531C53.6172 5.60547 53.7227 5.56055 53.8633 5.56055ZM61.5625 11.0918C61.5625 11.584 61.502 12.0332 61.3809 12.4395C61.2598 12.8418 61.0801 13.1895 60.8418 13.4824C60.6035 13.7754 60.3066 14.002 59.9512 14.1621C59.5996 14.3223 59.1895 14.4023 58.7207 14.4023C58.2754 14.4023 57.8789 14.3242 57.5312 14.168C57.1836 14.0078 56.8887 13.7812 56.6465 13.4883C56.4082 13.1953 56.2266 12.8477 56.1016 12.4453C55.9766 12.0391 55.9141 11.5879 55.9141 11.0918C55.9141 10.4082 56.0273 9.82031 56.2539 9.32812C56.4844 8.83203 56.8125 8.45312 57.2383 8.19141C57.668 7.92578 58.1816 7.79297 58.7793 7.79297C59.3965 7.79297 59.9102 7.93359 60.3203 8.21484C60.7344 8.49219 61.0449 8.87891 61.252 9.375C61.459 9.87109 61.5625 10.4434 61.5625 11.0918ZM56.5234 11.0918C56.5234 11.6504 56.6035 12.1387 56.7637 12.5566C56.9238 12.9746 57.166 13.3008 57.4902 13.5352C57.8184 13.7695 58.2324 13.8867 58.7324 13.8867C59.2441 13.8867 59.6641 13.7695 59.9922 13.5352C60.3203 13.3008 60.5625 12.9727 60.7188 12.5508C60.875 12.1289 60.9531 11.6426 60.9531 11.0918C60.9531 10.5566 60.8789 10.0801 60.7305 9.66211C60.582 9.24414 60.3477 8.91602 60.0273 8.67773C59.707 8.43555 59.2891 8.31445 58.7734 8.31445C58.0352 8.31445 57.4746 8.56055 57.0918 9.05273C56.7129 9.54492 56.5234 10.2246 56.5234 11.0918ZM67.3047 12.6152C67.3047 12.9941 67.209 13.3184 67.0176 13.5879C66.8301 13.8535 66.5547 14.0566 66.1914 14.1973C65.8281 14.334 65.3809 14.4023 64.8496 14.4023C64.4082 14.4023 64.0137 14.3633 63.666 14.2852C63.3184 14.207 63.0273 14.1113 62.793 13.998V13.4121C63.0859 13.5566 63.4102 13.6738 63.7656 13.7637C64.1211 13.8535 64.4863 13.8984 64.8613 13.8984C65.5176 13.8984 65.9902 13.7871 66.2793 13.5645C66.5684 13.3418 66.7129 13.0371 66.7129 12.6504C66.7129 12.3965 66.6406 12.1875 66.4961 12.0234C66.3555 11.8555 66.1523 11.7109 65.8867 11.5898C65.6211 11.4688 65.3008 11.3457 64.9258 11.2207C64.5352 11.0879 64.1875 10.957 63.8828 10.8281C63.582 10.6953 63.3457 10.5215 63.1738 10.3066C63.002 10.0879 62.916 9.79102 62.916 9.41602C62.916 8.9043 63.1211 8.50586 63.5312 8.2207C63.9414 7.93555 64.4922 7.79297 65.1836 7.79297C65.5664 7.79297 65.9219 7.83008 66.25 7.9043C66.582 7.97461 66.8828 8.06641 67.1523 8.17969L66.9414 8.68359C66.6992 8.57031 66.4199 8.47852 66.1035 8.4082C65.7871 8.33789 65.4707 8.30273 65.1543 8.30273C64.6348 8.30273 64.2285 8.39453 63.9355 8.57812C63.6426 8.76172 63.4961 9.03125 63.4961 9.38672C63.4961 9.66016 63.5664 9.875 63.707 10.0312C63.8477 10.1836 64.0488 10.3125 64.3105 10.418C64.5723 10.5195 64.8828 10.6328 65.2422 10.7578C65.6133 10.8867 65.9551 11.0215 66.2676 11.1621C66.584 11.3027 66.8359 11.4844 67.0234 11.707C67.2109 11.9297 67.3047 12.2324 67.3047 12.6152Z" fill="#F3F5F7"/>
</svg>
