<svg width="109" height="24" viewBox="0 0 109 24" fill="none" xmlns="http://www.w3.org/2000/svg">
<rect x="0.53009" y="0.511963" width="108.002" height="22.9619" rx="6" fill="#F9E26E"/>
<path d="M20.7344 17.4806H18.6494V7.48645H24.378V9.22278H20.7344V11.7999H24.125V13.5294H20.7344V17.4806ZM27.8301 13.6456C27.8301 14.4021 27.9531 14.9741 28.1992 15.3615C28.4499 15.7488 28.8555 15.9425 29.416 15.9425C29.972 15.9425 30.3708 15.7511 30.6123 15.3683C30.8584 14.9809 30.9815 14.4067 30.9815 13.6456C30.9815 12.8891 30.8584 12.3217 30.6123 11.9435C30.3662 11.5652 29.9629 11.3761 29.4024 11.3761C28.8464 11.3761 28.4453 11.5652 28.1992 11.9435C27.9531 12.3172 27.8301 12.8846 27.8301 13.6456ZM33.1143 13.6456C33.1143 14.8898 32.7862 15.8628 32.1299 16.5646C31.4737 17.2664 30.5599 17.6173 29.3887 17.6173C28.655 17.6173 28.0078 17.4578 27.4473 17.1388C26.8867 16.8152 26.4561 16.3527 26.1553 15.7511C25.8545 15.1495 25.7041 14.4477 25.7041 13.6456C25.7041 12.3969 26.03 11.4262 26.6817 10.7335C27.3334 10.0408 28.2494 9.69446 29.4297 9.69446C30.1634 9.69446 30.8106 9.85396 31.3711 10.173C31.9317 10.492 32.3623 10.95 32.6631 11.547C32.9639 12.144 33.1143 12.8435 33.1143 13.6456ZM39.1026 9.69446C39.3851 9.69446 39.6198 9.71497 39.8067 9.75598L39.6494 11.7111C39.4808 11.6655 39.2757 11.6427 39.0342 11.6427C38.3688 11.6427 37.8493 11.8136 37.4756 12.1554C37.1065 12.4972 36.9219 12.9757 36.9219 13.5909V17.4806H34.8369V9.83801H36.416L36.7237 11.1232H36.8262C37.0632 10.6948 37.3822 10.3507 37.7832 10.0909C38.1888 9.82662 38.6286 9.69446 39.1026 9.69446ZM48.0371 17.4806H45.9522V13.0167C45.9522 12.4653 45.8587 12.0529 45.6719 11.7794C45.4896 11.5014 45.2002 11.3624 44.8037 11.3624C44.2705 11.3624 43.8832 11.5584 43.6416 11.9503C43.4001 12.3422 43.2793 12.9871 43.2793 13.8849V17.4806H41.1944V9.83801H42.7871L43.0674 10.8156H43.1836C43.3887 10.4646 43.6849 10.1912 44.0723 9.99524C44.4597 9.79472 44.904 9.69446 45.4053 9.69446C46.5492 9.69446 47.3239 10.0682 47.7295 10.8156H47.9141C48.1192 10.4601 48.4199 10.1844 48.8164 9.9884C49.2175 9.79244 49.6686 9.69446 50.1699 9.69446C51.0358 9.69446 51.6898 9.91777 52.1319 10.3644C52.5785 10.8064 52.8018 11.5174 52.8018 12.4972V17.4806H50.71V13.0167C50.71 12.4653 50.6166 12.0529 50.4297 11.7794C50.2474 11.5014 49.958 11.3624 49.5615 11.3624C49.0511 11.3624 48.6683 11.5447 48.4131 11.9093C48.1625 12.2739 48.0371 12.8527 48.0371 13.6456V17.4806ZM59.8018 17.4806L59.3985 16.4415H59.3438C58.9929 16.8836 58.6306 17.1912 58.2569 17.3644C57.8877 17.533 57.4046 17.6173 56.8076 17.6173C56.0739 17.6173 55.4951 17.4077 55.0713 16.9884C54.652 16.5691 54.4424 15.9721 54.4424 15.1974C54.4424 14.3862 54.725 13.7892 55.2901 13.4064C55.8597 13.019 56.7165 12.8048 57.8604 12.7638L59.1865 12.7228V12.3878C59.1865 11.6131 58.7901 11.2257 57.9971 11.2257C57.3864 11.2257 56.6686 11.4103 55.8438 11.7794L55.1533 10.3712C56.0329 9.91093 57.0082 9.68079 58.0791 9.68079C59.1045 9.68079 59.8906 9.90409 60.4375 10.3507C60.9844 10.7973 61.2578 11.4764 61.2578 12.3878V17.4806H59.8018ZM59.1865 13.9396L58.3799 13.9669C57.7738 13.9851 57.3226 14.0945 57.0264 14.295C56.7302 14.4956 56.5821 14.8009 56.5821 15.2111C56.5821 15.799 56.9193 16.0929 57.5938 16.0929C58.0768 16.0929 58.4619 15.9539 58.749 15.6759C59.0407 15.3979 59.1865 15.0288 59.1865 14.5685V13.9396ZM66.5147 17.6173C64.1358 17.6173 62.9463 16.3116 62.9463 13.7003C62.9463 12.4015 63.2699 11.4103 63.917 10.7267C64.5642 10.0385 65.4916 9.69446 66.6992 9.69446C67.5834 9.69446 68.3763 9.86764 69.0781 10.214L68.4629 11.8273C68.1348 11.6951 67.8294 11.588 67.5469 11.506C67.2643 11.4194 66.9818 11.3761 66.6992 11.3761C65.6146 11.3761 65.0723 12.1463 65.0723 13.6866C65.0723 15.1814 65.6146 15.9288 66.6992 15.9288C67.1003 15.9288 67.4717 15.8764 67.8135 15.7716C68.1553 15.6622 68.4971 15.4936 68.8389 15.2657V17.0499C68.5017 17.2641 68.1599 17.4122 67.8135 17.4943C67.4717 17.5763 67.0388 17.6173 66.5147 17.6173ZM70.5274 7.86243C70.5274 7.18339 70.9056 6.84387 71.6621 6.84387C72.4186 6.84387 72.7969 7.18339 72.7969 7.86243C72.7969 8.18599 72.7012 8.43892 72.5098 8.62122C72.3229 8.79895 72.0404 8.88782 71.6621 8.88782C70.9056 8.88782 70.5274 8.54602 70.5274 7.86243ZM72.7012 17.4806H70.6162V9.83801H72.7012V17.4806ZM76.5567 13.6456C76.5567 14.4021 76.6797 14.9741 76.9258 15.3615C77.1765 15.7488 77.5821 15.9425 78.1426 15.9425C78.6986 15.9425 79.0974 15.7511 79.3389 15.3683C79.585 14.9809 79.708 14.4067 79.708 13.6456C79.708 12.8891 79.585 12.3217 79.3389 11.9435C79.0928 11.5652 78.6895 11.3761 78.1289 11.3761C77.5729 11.3761 77.1719 11.5652 76.9258 11.9435C76.6797 12.3172 76.5567 12.8846 76.5567 13.6456ZM81.8408 13.6456C81.8408 14.8898 81.5127 15.8628 80.8565 16.5646C80.2002 17.2664 79.2865 17.6173 78.1153 17.6173C77.3815 17.6173 76.7344 17.4578 76.1739 17.1388C75.6133 16.8152 75.1826 16.3527 74.8819 15.7511C74.5811 15.1495 74.4307 14.4477 74.4307 13.6456C74.4307 12.3969 74.7565 11.4262 75.4082 10.7335C76.0599 10.0408 76.9759 9.69446 78.1563 9.69446C78.89 9.69446 79.5371 9.85396 80.0977 10.173C80.6582 10.492 81.0889 10.95 81.3897 11.547C81.6905 12.144 81.8408 12.8435 81.8408 13.6456ZM76.9942 8.99719V8.81262C77.778 7.90116 78.3135 7.21529 78.6006 6.755H80.9385V6.89856C80.7015 7.13554 80.2959 7.48873 79.7217 7.95813C79.152 8.42297 78.7054 8.76933 78.3819 8.99719H76.9942ZM90.6182 17.4806H88.5332V13.0167C88.5332 12.4653 88.4352 12.0529 88.2393 11.7794C88.0433 11.5014 87.7311 11.3624 87.3028 11.3624C86.7194 11.3624 86.2979 11.5584 86.0381 11.9503C85.7783 12.3377 85.6485 12.9825 85.6485 13.8849V17.4806H83.5635V9.83801H85.1563L85.4365 10.8156H85.5528C85.7852 10.4464 86.1042 10.1684 86.5098 9.98157C86.9199 9.79016 87.3848 9.69446 87.9043 9.69446C88.793 9.69446 89.4675 9.93599 89.9278 10.4191C90.388 10.8976 90.6182 11.5903 90.6182 12.4972V17.4806Z" fill="#2C2C2C"/>
</svg>
