<svg width="96" height="21" viewBox="0 0 96 21" fill="none" xmlns="http://www.w3.org/2000/svg">
<rect x="0.826172" y="0.0429688" width="95" height="20" rx="6" fill="#37BCFF"/>
<path d="M21.5254 15.0156H20.9277V6.44922H25.6211V7H21.5254V10.6328H25.3926V11.1895H21.5254V15.0156ZM32.0723 11.8223C32.0723 12.8613 31.8203 13.6738 31.3164 14.2598C30.8125 14.8418 30.1172 15.1328 29.2305 15.1328C28.6719 15.1328 28.1797 14.998 27.7539 14.7285C27.3281 14.459 27.002 14.0723 26.7754 13.5684C26.5488 13.0645 26.4355 12.4824 26.4355 11.8223C26.4355 10.7832 26.6875 9.97461 27.1914 9.39648C27.6953 8.81445 28.3867 8.52344 29.2656 8.52344C30.1406 8.52344 30.8262 8.81836 31.3223 9.4082C31.8223 9.99414 32.0723 10.7988 32.0723 11.8223ZM27.0449 11.8223C27.0449 12.6973 27.2363 13.3809 27.6191 13.873C28.0059 14.3613 28.5508 14.6055 29.2539 14.6055C29.957 14.6055 30.5 14.3613 30.8828 13.873C31.2695 13.3809 31.4629 12.6973 31.4629 11.8223C31.4629 10.9434 31.2676 10.2617 30.877 9.77734C30.4902 9.29297 29.9453 9.05078 29.2422 9.05078C28.5391 9.05078 27.9961 9.29297 27.6133 9.77734C27.2344 10.2578 27.0449 10.9395 27.0449 11.8223ZM36.3438 8.52344C36.6133 8.52344 36.9023 8.55078 37.2109 8.60547L37.0996 9.16211C36.834 9.0957 36.5586 9.0625 36.2734 9.0625C35.7305 9.0625 35.2852 9.29297 34.9375 9.75391C34.5898 10.2148 34.416 10.7969 34.416 11.5V15.0156H33.8359V8.64648H34.3281L34.3867 9.79492H34.4277C34.6895 9.32617 34.9688 8.99805 35.2656 8.81055C35.5625 8.61914 35.9219 8.52344 36.3438 8.52344ZM46.4688 15.0156V10.8379C46.4688 10.2168 46.3477 9.76367 46.1055 9.47852C45.8633 9.19336 45.4922 9.05078 44.9922 9.05078C44.3398 9.05078 43.8574 9.23047 43.5449 9.58984C43.2324 9.94922 43.0762 10.5137 43.0762 11.2832V15.0156H42.4844V10.6621C42.4844 9.58789 41.9922 9.05078 41.0078 9.05078C40.3398 9.05078 39.8535 9.24609 39.5488 9.63672C39.2441 10.0234 39.0918 10.6445 39.0918 11.5V15.0156H38.5117V8.64648H38.9922L39.1152 9.51953H39.1504C39.3262 9.20312 39.5762 8.95898 39.9004 8.78711C40.2246 8.61133 40.582 8.52344 40.9727 8.52344C41.9766 8.52344 42.6211 8.90039 42.9062 9.6543H42.9297C43.1367 9.29102 43.4141 9.01172 43.7617 8.81641C44.1133 8.62109 44.5117 8.52344 44.957 8.52344C45.6523 8.52344 46.1738 8.70898 46.5215 9.08008C46.8691 9.45117 47.043 10.041 47.043 10.8496V15.0156H46.4688ZM52.9727 15.0156L52.8262 14.0078H52.7793C52.459 14.418 52.1289 14.709 51.7891 14.8809C51.4531 15.0488 51.0547 15.1328 50.5938 15.1328C49.9688 15.1328 49.4824 14.9727 49.1348 14.6523C48.7871 14.332 48.6133 13.8887 48.6133 13.3223C48.6133 12.7012 48.8711 12.2188 49.3867 11.875C49.9062 11.5312 50.6562 11.3496 51.6367 11.3301L52.8496 11.2949V10.873C52.8496 10.2676 52.7266 9.81055 52.4805 9.50195C52.2344 9.19336 51.8379 9.03906 51.291 9.03906C50.7012 9.03906 50.0898 9.20312 49.457 9.53125L49.2402 9.02734C49.9395 8.69922 50.6309 8.53516 51.3145 8.53516C52.0137 8.53516 52.5352 8.7168 52.8789 9.08008C53.2266 9.44336 53.4004 10.0098 53.4004 10.7793V15.0156H52.9727ZM50.6289 14.6055C51.3086 14.6055 51.8438 14.4121 52.2344 14.0254C52.6289 13.6348 52.8262 13.0938 52.8262 12.4023V11.7754L51.7129 11.8223C50.8184 11.8652 50.1797 12.0059 49.7969 12.2441C49.418 12.4785 49.2285 12.8457 49.2285 13.3457C49.2285 13.7441 49.3496 14.0547 49.5918 14.2773C49.8379 14.4961 50.1836 14.6055 50.6289 14.6055ZM58.0117 15.1328C57.1016 15.1328 56.3887 14.8457 55.873 14.2715C55.3574 13.6973 55.0996 12.8965 55.0996 11.8691C55.0996 10.8145 55.3672 9.99414 55.9023 9.4082C56.4375 8.81836 57.1699 8.52344 58.0996 8.52344C58.6504 8.52344 59.1777 8.61914 59.6816 8.81055L59.5234 9.32617C58.9727 9.14258 58.4941 9.05078 58.0879 9.05078C57.3066 9.05078 56.7148 9.29297 56.3125 9.77734C55.9102 10.2578 55.709 10.9512 55.709 11.8574C55.709 12.7168 55.9102 13.3906 56.3125 13.8789C56.7148 14.3633 57.2773 14.6055 58 14.6055C58.5781 14.6055 59.1152 14.502 59.6113 14.2949V14.834C59.2051 15.0332 58.6719 15.1328 58.0117 15.1328ZM61.7559 15.0156H61.1758V8.64648H61.7559V15.0156ZM61.0938 6.87695C61.0938 6.50195 61.2168 6.31445 61.4629 6.31445C61.584 6.31445 61.6777 6.36328 61.7441 6.46094C61.8145 6.55859 61.8496 6.69727 61.8496 6.87695C61.8496 7.05273 61.8145 7.19141 61.7441 7.29297C61.6777 7.39453 61.584 7.44531 61.4629 7.44531C61.2168 7.44531 61.0938 7.25586 61.0938 6.87695ZM69.1621 11.8223C69.1621 12.8613 68.9102 13.6738 68.4062 14.2598C67.9023 14.8418 67.207 15.1328 66.3203 15.1328C65.7617 15.1328 65.2695 14.998 64.8438 14.7285C64.418 14.459 64.0918 14.0723 63.8652 13.5684C63.6387 13.0645 63.5254 12.4824 63.5254 11.8223C63.5254 10.7832 63.7773 9.97461 64.2812 9.39648C64.7852 8.81445 65.4766 8.52344 66.3555 8.52344C67.2305 8.52344 67.916 8.81836 68.4121 9.4082C68.9121 9.99414 69.1621 10.7988 69.1621 11.8223ZM64.1348 11.8223C64.1348 12.6973 64.3262 13.3809 64.709 13.873C65.0957 14.3613 65.6406 14.6055 66.3438 14.6055C67.0469 14.6055 67.5898 14.3613 67.9727 13.873C68.3594 13.3809 68.5527 12.6973 68.5527 11.8223C68.5527 10.9434 68.3574 10.2617 67.9668 9.77734C67.5801 9.29297 67.0352 9.05078 66.332 9.05078C65.6289 9.05078 65.0859 9.29297 64.7031 9.77734C64.3242 10.2578 64.1348 10.9395 64.1348 11.8223ZM65.752 7.65039C66.0371 7.3418 66.3184 7.00781 66.5957 6.64844C66.877 6.28516 67.0684 6.00977 67.1699 5.82227H67.9961V5.92188C67.8555 6.125 67.6152 6.39453 67.2754 6.73047C66.9395 7.06641 66.5684 7.4043 66.1621 7.74414H65.752V7.65039ZM75.3672 15.0156V10.8848C75.3672 10.2441 75.2324 9.7793 74.9629 9.49023C74.6934 9.19727 74.2754 9.05078 73.709 9.05078C72.9473 9.05078 72.3887 9.24414 72.0332 9.63086C71.6816 10.0137 71.5059 10.6367 71.5059 11.5V15.0156H70.9258V8.64648H71.418L71.5293 9.51953H71.5645C71.9785 8.85547 72.7148 8.52344 73.7734 8.52344C75.2188 8.52344 75.9414 9.29883 75.9414 10.8496V15.0156H75.3672Z" fill="#F3F5F7"/>
</svg>
