<svg width="20" height="20" viewBox="0 0 20 20" fill="none" xmlns="http://www.w3.org/2000/svg">
<circle cx="10" cy="10" r="10" fill="#2C2C2C"/>
<path d="M8.29688 13.2188V12.8125C8.29688 12.3958 8.33594 12.0391 8.41406 11.7422C8.49219 11.4401 8.6276 11.1589 8.82031 10.8984C9.01823 10.638 9.29167 10.362 9.64062 10.0703C10.0469 9.73177 10.3672 9.44531 10.6016 9.21094C10.8411 8.97135 11.013 8.73177 11.1172 8.49219C11.2214 8.2526 11.2734 7.96354 11.2734 7.625C11.2734 7.08333 11.099 6.66927 10.75 6.38281C10.401 6.09115 9.90885 5.94531 9.27344 5.94531C8.75781 5.94531 8.29948 6.01042 7.89844 6.14062C7.4974 6.27083 7.11198 6.42708 6.74219 6.60938L6.28906 5.5625C6.71615 5.33854 7.17969 5.15625 7.67969 5.01562C8.17969 4.875 8.73698 4.80469 9.35156 4.80469C10.3568 4.80469 11.1354 5.05469 11.6875 5.55469C12.2396 6.04948 12.5156 6.73177 12.5156 7.60156C12.5156 8.08594 12.4375 8.5 12.2812 8.84375C12.125 9.18229 11.9036 9.49479 11.6172 9.78125C11.3307 10.0625 10.9922 10.362 10.6016 10.6797C10.2578 10.9714 9.99479 11.2292 9.8125 11.4531C9.63021 11.6719 9.50521 11.8984 9.4375 12.1328C9.36979 12.362 9.33594 12.638 9.33594 12.9609V13.2188H8.29688ZM7.95312 15.5781C7.95312 15.2135 8.03906 14.9557 8.21094 14.8047C8.38281 14.6484 8.60417 14.5703 8.875 14.5703C9.13021 14.5703 9.34635 14.6484 9.52344 14.8047C9.70573 14.9557 9.79688 15.2135 9.79688 15.5781C9.79688 15.9375 9.70573 16.2005 9.52344 16.3672C9.34635 16.5286 9.13021 16.6094 8.875 16.6094C8.60417 16.6094 8.38281 16.5286 8.21094 16.3672C8.03906 16.2005 7.95312 15.9375 7.95312 15.5781Z" fill="#F3F5F7"/>
</svg>
