<svg width="95" height="20" viewBox="0 0 95 20" fill="none" xmlns="http://www.w3.org/2000/svg">
<rect width="95" height="20" rx="6" fill="#2C2C2C"/>
<path d="M20.6055 12.7637C20.6055 13.2754 20.4766 13.7051 20.2188 14.0527C19.9609 14.3965 19.6113 14.6562 19.1699 14.832C18.7285 15.0039 18.2285 15.0898 17.6699 15.0898C17.3223 15.0898 17.0059 15.0723 16.7207 15.0371C16.4395 15.0059 16.1836 14.9629 15.9531 14.9082C15.7266 14.8535 15.5195 14.791 15.332 14.7207V14.1172C15.6367 14.2344 15.9883 14.3379 16.3867 14.4277C16.7891 14.5137 17.2266 14.5566 17.6992 14.5566C18.1445 14.5566 18.5391 14.4922 18.8828 14.3633C19.2305 14.2344 19.5039 14.0391 19.7031 13.7773C19.9023 13.5156 20.002 13.1855 20.002 12.7871C20.002 12.4355 19.918 12.1484 19.75 11.9258C19.5859 11.6992 19.3379 11.5059 19.0059 11.3457C18.6738 11.1816 18.2559 11.0156 17.752 10.8477C17.4004 10.7266 17.0801 10.5996 16.791 10.4668C16.5059 10.3301 16.2617 10.1738 16.0586 9.99805C15.8555 9.81836 15.6992 9.60352 15.5898 9.35352C15.4844 9.09961 15.4316 8.80078 15.4316 8.45703C15.4316 7.98438 15.5508 7.58789 15.7891 7.26758C16.0312 6.94336 16.3574 6.69922 16.7676 6.53516C17.1816 6.36719 17.6465 6.2832 18.1621 6.2832C18.5723 6.2832 18.9609 6.32227 19.3281 6.40039C19.6992 6.47461 20.0566 6.58789 20.4004 6.74023L20.1895 7.26172C19.8457 7.11328 19.502 7.00391 19.1582 6.93359C18.8145 6.86328 18.4746 6.82812 18.1387 6.82812C17.7363 6.82812 17.377 6.88867 17.0605 7.00977C16.748 7.12695 16.5 7.30469 16.3164 7.54297C16.1328 7.78125 16.041 8.08203 16.041 8.44531C16.041 8.82031 16.125 9.12305 16.293 9.35352C16.4648 9.58398 16.707 9.77539 17.0195 9.92773C17.3359 10.0801 17.709 10.2285 18.1387 10.373C18.6465 10.5449 19.084 10.7266 19.4512 10.918C19.8184 11.1055 20.1016 11.3438 20.3008 11.6328C20.5039 11.9219 20.6055 12.2988 20.6055 12.7637ZM22.8789 8.60352V14.9727H22.2871V8.60352H22.8789ZM22.5918 6.24805C22.7402 6.24805 22.8496 6.29297 22.9199 6.38281C22.9902 6.46875 23.0254 6.58594 23.0254 6.73438C23.0254 6.88281 22.9902 7 22.9199 7.08594C22.8496 7.17188 22.7402 7.21484 22.5918 7.21484C22.4512 7.21484 22.3457 7.17188 22.2754 7.08594C22.2051 7 22.1699 6.88281 22.1699 6.73438C22.1699 6.58594 22.2051 6.46875 22.2754 6.38281C22.3457 6.29297 22.4512 6.24805 22.5918 6.24805ZM27.8125 8.48047C28.5273 8.48047 29.0762 8.66797 29.459 9.04297C29.8418 9.41797 30.0332 10.0059 30.0332 10.8066V14.9727H29.4473V10.8418C29.4473 10.209 29.3027 9.74414 29.0137 9.44727C28.7246 9.15039 28.3047 9.00195 27.7539 9.00195C27.0547 9.00195 26.5195 9.20703 26.1484 9.61719C25.7812 10.0234 25.5977 10.6387 25.5977 11.4629V14.9727H25.0059V8.60352H25.4863L25.5742 9.76367H25.6094C25.7227 9.52539 25.877 9.31055 26.0723 9.11914C26.2715 8.92383 26.5156 8.76953 26.8047 8.65625C27.0938 8.53906 27.4297 8.48047 27.8125 8.48047ZM37.7676 15.0898C37.1348 15.0898 36.5996 14.959 36.1621 14.6973C35.7285 14.4316 35.4004 14.0547 35.1777 13.5664C34.959 13.0742 34.8496 12.4922 34.8496 11.8203C34.8496 11.1211 34.9766 10.5234 35.2305 10.0273C35.4844 9.52734 35.8418 9.14453 36.3027 8.87891C36.7637 8.61328 37.3047 8.48047 37.9258 8.48047C38.2305 8.48047 38.5137 8.50781 38.7754 8.5625C39.0371 8.61719 39.2734 8.69336 39.4844 8.79102L39.3262 9.3125C39.1074 9.21484 38.875 9.14062 38.6289 9.08984C38.3828 9.03906 38.1465 9.01367 37.9199 9.01367C37.3965 9.01367 36.9512 9.12891 36.584 9.35938C36.2207 9.58594 35.9414 9.91016 35.7461 10.332C35.5547 10.75 35.459 11.2441 35.459 11.8145C35.459 12.3496 35.541 12.8242 35.7051 13.2383C35.8691 13.6484 36.1211 13.9727 36.4609 14.2109C36.8008 14.4453 37.2363 14.5625 37.7676 14.5625C38.0762 14.5625 38.3691 14.5312 38.6465 14.4688C38.9277 14.4062 39.1836 14.3262 39.4141 14.2285V14.7676C39.207 14.8613 38.9668 14.9375 38.6934 14.9961C38.4238 15.0586 38.1152 15.0898 37.7676 15.0898ZM41.5234 14.9727H40.9258V5.85547H41.5234V14.9727ZM45.8652 8.49219C46.5645 8.49219 47.0879 8.66797 47.4355 9.01953C47.7832 9.37109 47.957 9.93164 47.957 10.7012V14.9727H47.5L47.3945 13.8594H47.3594C47.2227 14.0977 47.0566 14.3105 46.8613 14.498C46.666 14.6816 46.4258 14.8262 46.1406 14.9316C45.8594 15.0371 45.5156 15.0898 45.1094 15.0898C44.6992 15.0898 44.3477 15.0215 44.0547 14.8848C43.7656 14.748 43.541 14.5488 43.3809 14.2871C43.2246 14.0254 43.1465 13.707 43.1465 13.332C43.1465 12.6992 43.4082 12.2188 43.9316 11.8906C44.4551 11.5586 45.207 11.3711 46.1875 11.3281L47.3711 11.2695V10.8066C47.3711 10.1543 47.2422 9.68945 46.9844 9.41211C46.7266 9.13477 46.3457 8.99609 45.8418 8.99609C45.5137 8.99609 45.1973 9.03906 44.8926 9.125C44.5918 9.20703 44.2852 9.32617 43.9727 9.48242L43.7852 8.99023C44.0898 8.8457 44.416 8.72656 44.7637 8.63281C45.1152 8.53906 45.4824 8.49219 45.8652 8.49219ZM47.3652 11.7324L46.252 11.7793C45.4434 11.8184 44.8281 11.9629 44.4062 12.2129C43.9844 12.4629 43.7734 12.8379 43.7734 13.3379C43.7734 13.7402 43.8984 14.0488 44.1484 14.2637C44.4023 14.4785 44.7539 14.5859 45.2031 14.5859C45.9023 14.5859 46.4355 14.3867 46.8027 13.9883C47.1738 13.5898 47.3613 13.0469 47.3652 12.3594V11.7324ZM53.9863 13.3027C53.9863 13.6816 53.8906 14.0059 53.6992 14.2754C53.5117 14.541 53.2363 14.7441 52.873 14.8848C52.5098 15.0215 52.0625 15.0898 51.5312 15.0898C51.0898 15.0898 50.6953 15.0508 50.3477 14.9727C50 14.8945 49.709 14.7988 49.4746 14.6855V14.0996C49.7676 14.2441 50.0918 14.3613 50.4473 14.4512C50.8027 14.541 51.168 14.5859 51.543 14.5859C52.1992 14.5859 52.6719 14.4746 52.9609 14.252C53.25 14.0293 53.3945 13.7246 53.3945 13.3379C53.3945 13.084 53.3223 12.875 53.1777 12.7109C53.0371 12.543 52.834 12.3984 52.5684 12.2773C52.3027 12.1562 51.9824 12.0332 51.6074 11.9082C51.2168 11.7754 50.8691 11.6445 50.5645 11.5156C50.2637 11.3828 50.0273 11.209 49.8555 10.9941C49.6836 10.7754 49.5977 10.4785 49.5977 10.1035C49.5977 9.5918 49.8027 9.19336 50.2129 8.9082C50.623 8.62305 51.1738 8.48047 51.8652 8.48047C52.248 8.48047 52.6035 8.51758 52.9316 8.5918C53.2637 8.66211 53.5645 8.75391 53.834 8.86719L53.623 9.37109C53.3809 9.25781 53.1016 9.16602 52.7852 9.0957C52.4688 9.02539 52.1523 8.99023 51.8359 8.99023C51.3164 8.99023 50.9102 9.08203 50.6172 9.26562C50.3242 9.44922 50.1777 9.71875 50.1777 10.0742C50.1777 10.3477 50.248 10.5625 50.3887 10.7188C50.5293 10.8711 50.7305 11 50.9922 11.1055C51.2539 11.207 51.5645 11.3203 51.9238 11.4453C52.2949 11.5742 52.6367 11.709 52.9492 11.8496C53.2656 11.9902 53.5176 12.1719 53.7051 12.3945C53.8926 12.6172 53.9863 12.9199 53.9863 13.3027ZM56.1836 8.60352V14.9727H55.5918V8.60352H56.1836ZM55.8965 6.24805C56.0449 6.24805 56.1543 6.29297 56.2246 6.38281C56.2949 6.46875 56.3301 6.58594 56.3301 6.73438C56.3301 6.88281 56.2949 7 56.2246 7.08594C56.1543 7.17188 56.0449 7.21484 55.8965 7.21484C55.7559 7.21484 55.6504 7.17188 55.5801 7.08594C55.5098 7 55.4746 6.88281 55.4746 6.73438C55.4746 6.58594 55.5098 6.46875 55.5801 6.38281C55.6504 6.29297 55.7559 6.24805 55.8965 6.24805ZM60.6836 9.0957H59.1836V14.9727H58.5918V9.0957H57.4082V8.74414L58.5918 8.5918V7.88867C58.5918 7.41992 58.6582 7.03125 58.791 6.72266C58.9277 6.41016 59.1328 6.17773 59.4062 6.02539C59.6836 5.86914 60.0332 5.79102 60.4551 5.79102C60.6738 5.79102 60.8711 5.80859 61.0469 5.84375C61.2227 5.875 61.3867 5.91602 61.5391 5.9668L61.4043 6.46484C61.2676 6.41797 61.1152 6.37891 60.9473 6.34766C60.7832 6.31641 60.6211 6.30078 60.4609 6.30078C60.0117 6.30078 59.6855 6.42578 59.4824 6.67578C59.2832 6.92188 59.1836 7.32422 59.1836 7.88281V8.60352H60.6836V9.0957ZM62.5059 8.60352V14.9727H61.9141V8.60352H62.5059ZM62.2188 6.24805C62.3672 6.24805 62.4766 6.29297 62.5469 6.38281C62.6172 6.46875 62.6523 6.58594 62.6523 6.73438C62.6523 6.88281 62.6172 7 62.5469 7.08594C62.4766 7.17188 62.3672 7.21484 62.2188 7.21484C62.0781 7.21484 61.9727 7.17188 61.9023 7.08594C61.832 7 61.7969 6.88281 61.7969 6.73438C61.7969 6.58594 61.832 6.46875 61.9023 6.38281C61.9727 6.29297 62.0781 6.24805 62.2188 6.24805ZM67.1816 15.0898C66.5488 15.0898 66.0137 14.959 65.5762 14.6973C65.1426 14.4316 64.8145 14.0547 64.5918 13.5664C64.373 13.0742 64.2637 12.4922 64.2637 11.8203C64.2637 11.1211 64.3906 10.5234 64.6445 10.0273C64.8984 9.52734 65.2559 9.14453 65.7168 8.87891C66.1777 8.61328 66.7188 8.48047 67.3398 8.48047C67.6445 8.48047 67.9277 8.50781 68.1895 8.5625C68.4512 8.61719 68.6875 8.69336 68.8984 8.79102L68.7402 9.3125C68.5215 9.21484 68.2891 9.14062 68.043 9.08984C67.7969 9.03906 67.5605 9.01367 67.334 9.01367C66.8105 9.01367 66.3652 9.12891 65.998 9.35938C65.6348 9.58594 65.3555 9.91016 65.1602 10.332C64.9688 10.75 64.873 11.2441 64.873 11.8145C64.873 12.3496 64.9551 12.8242 65.1191 13.2383C65.2832 13.6484 65.5352 13.9727 65.875 14.2109C66.2148 14.4453 66.6504 14.5625 67.1816 14.5625C67.4902 14.5625 67.7832 14.5312 68.0605 14.4688C68.3418 14.4062 68.5977 14.3262 68.8281 14.2285V14.7676C68.6211 14.8613 68.3809 14.9375 68.1074 14.9961C67.8379 15.0586 67.5293 15.0898 67.1816 15.0898ZM72.5605 8.49219C73.2598 8.49219 73.7832 8.66797 74.1309 9.01953C74.4785 9.37109 74.6523 9.93164 74.6523 10.7012V14.9727H74.1953L74.0898 13.8594H74.0547C73.918 14.0977 73.752 14.3105 73.5566 14.498C73.3613 14.6816 73.1211 14.8262 72.8359 14.9316C72.5547 15.0371 72.2109 15.0898 71.8047 15.0898C71.3945 15.0898 71.043 15.0215 70.75 14.8848C70.4609 14.748 70.2363 14.5488 70.0762 14.2871C69.9199 14.0254 69.8418 13.707 69.8418 13.332C69.8418 12.6992 70.1035 12.2188 70.627 11.8906C71.1504 11.5586 71.9023 11.3711 72.8828 11.3281L74.0664 11.2695V10.8066C74.0664 10.1543 73.9375 9.68945 73.6797 9.41211C73.4219 9.13477 73.041 8.99609 72.5371 8.99609C72.209 8.99609 71.8926 9.03906 71.5879 9.125C71.2871 9.20703 70.9805 9.32617 70.668 9.48242L70.4805 8.99023C70.7852 8.8457 71.1113 8.72656 71.459 8.63281C71.8105 8.53906 72.1777 8.49219 72.5605 8.49219ZM74.0605 11.7324L72.9473 11.7793C72.1387 11.8184 71.5234 11.9629 71.1016 12.2129C70.6797 12.4629 70.4688 12.8379 70.4688 13.3379C70.4688 13.7402 70.5938 14.0488 70.8438 14.2637C71.0977 14.4785 71.4492 14.5859 71.8984 14.5859C72.5977 14.5859 73.1309 14.3867 73.498 13.9883C73.8691 13.5898 74.0566 13.0469 74.0605 12.3594V11.7324ZM79.2344 8.49219C79.4023 8.49219 79.5605 8.50195 79.709 8.52148C79.8574 8.54102 79.9961 8.56836 80.125 8.60352L80.0312 9.14844C79.9023 9.11328 79.7715 9.08789 79.6387 9.07227C79.5059 9.05273 79.3633 9.04297 79.2109 9.04297C78.9102 9.04297 78.6406 9.09961 78.4023 9.21289C78.168 9.32617 77.9688 9.48828 77.8047 9.69922C77.6406 9.91016 77.5156 10.1641 77.4297 10.4609C77.3438 10.7578 77.3008 11.0898 77.3008 11.457V14.9727H76.7031V8.60352H77.2129L77.2715 9.80469H77.3066C77.4043 9.55859 77.541 9.33789 77.7168 9.14258C77.8965 8.94336 78.1133 8.78516 78.3672 8.66797C78.6211 8.55078 78.9102 8.49219 79.2344 8.49219Z" fill="#F3F5F7"/>
</svg>
