<svg xmlns="http://www.w3.org/2000/svg" viewBox="0 0 1080 1080"><defs><style>.cls-1{fill:#fff;}.cls-2{fill:#ff6565;}.cls-3{fill:none;stroke:#fff;stroke-miterlimit:10;stroke-width:35px;}.cls-4{fill:#37bcff;}.cls-5{fill:#f9e26e;}.cls-6{fill:#5ce6a8;}</style></defs><title>Mesa de trabajo 3</title><g id="Final"><rect class="cls-1" x="39.21" y="40.25" width="1001.87" height="1001.87" rx="204.06"/><path class="cls-2" d="M39.21,540.83H530a0,0,0,0,1,0,0v501.3a0,0,0,0,1,0,0H240.13A200.92,200.92,0,0,1,39.21,841.21V540.83A0,0,0,0,1,39.21,540.83Z"/><path class="cls-3" d="M451.4,901l19.08-13.07s24.27-17.95,48.66-12.12,31.1,29.85,31.1,29.85V724.48l-10.55,18.7s-17,22.11-48,12.43a67.35,67.35,0,0,1-22.25-11.5c-10.38-8.35-25.07-18.37-35.09-22V905.62Z"/><path class="cls-3" d="M329.33,665.38a18.91,18.91,0,0,0-6.25,36.77l40.07,21.49a6.36,6.36,0,0,1-3,12l-172.56.28a18.1,18.1,0,0,0,1,36.18c.43,0,.86,0,1.29-.07H297.15v12L160,784.39a18.1,18.1,0,0,0,0,36.08l137.69.17V833H189a18.93,18.93,0,0,0-2.39-.17,18.65,18.65,0,0,0-2.38.17h-.59v.09a18.09,18.09,0,0,0,0,35.7l2.56.25.41,0,.41,0H297.7v12.43l-69.84-.13v.14a18.28,18.28,0,0,0-16.12,18c-.33,16,16.12,18.12,16.12,18.12H391c101,0,95.57-95.57,95.57-95.57,0-56-52.25-99.84-52.25-99.84L342,670.24A18.81,18.81,0,0,0,329.33,665.38Z"/><path class="cls-4" d="M550,540.47V724.92l-10.54,18.71s-17,22.11-48,12.43a67.48,67.48,0,0,1-22.23-11.5c-10.38-8.35-25.05-18.38-35.07-22l-92.34-51.92A18.9,18.9,0,1,0,323,702.59l0,.06L363,724.08a6.37,6.37,0,0,1-3,12H187.56v.27a18.1,18.1,0,0,0,1,36.18c.43,0,.86,0,1.29-.06H297.06v12H160v.33a18.1,18.1,0,0,0,0,36.09v.17H297.61v12.34H189a15.89,15.89,0,0,0-4.77,0h-.58v.09a18.09,18.09,0,0,0,0,35.7v.24h2.56l.41,0,.41,0H297.61V881.9l-69.8-.13v.14a18.12,18.12,0,0,0,0,36V918H390.89c26.61,0,45.83-6.65,59.7-16.43l.63-.17,19.07-13.08s24.26-18,48.63-12.12S550,906.08,550,906.08v136H840.16c111,0,200.92-90,200.92-201V540.47Z"/><path class="cls-3" d="M894.4,617.94l-13.07-19.08s-18-24.27-12.13-48.66,29.85-31.1,29.85-31.1H717.92l18.7,10.55s22.11,17,12.43,48a67.58,67.58,0,0,1-11.5,22.24c-8.35,10.38-18.38,25.07-22,35.09H899.05Z"/><path class="cls-3" d="M658.82,740a18.91,18.91,0,0,0,36.76,6.24l21.49-40.07a6.37,6.37,0,0,1,12,3l.27,172.56a18.1,18.1,0,0,0,36.18-1c0-.44,0-.87-.07-1.3V772.2h12l.33,137.13a18.1,18.1,0,0,0,36.08,0l.17-137.68h12.34V880.31a16,16,0,0,0,0,4.78v.58h.08a18.1,18.1,0,0,0,35.71,0l.24-2.56c0-.14,0-.27,0-.41s0-.27,0-.41V771.65h12.43l-.13,69.83h.15a18.27,18.27,0,0,0,18,16.12c16,.33,18.11-16.12,18.11-16.12V678.31c0-101-95.57-95.57-95.57-95.57-55.94,0-99.84,52.25-99.84,52.25l-51.91,92.4A18.84,18.84,0,0,0,658.82,740Z"/><path class="cls-5" d="M899.17,520.7h141.91V241.17c0-111-89.95-200.92-200.92-200.92H550V520.7H718.14l18.69,10.54s22.1,17,12.42,48a67.34,67.34,0,0,1-11.49,22.23c-8.35,10.37-18.37,25-22,35.07l-51.88,92.34a18.9,18.9,0,1,0,31.89,18.86l.06,0,21.41-40.08a6.36,6.36,0,0,1,12,3V883.13h.28a18.09,18.09,0,0,0,36.16-1c0-.44,0-.86-.07-1.29V773.64h12V910.7H778a18.09,18.09,0,0,0,36.06,0h.17V773.09h12.33V881.7a17,17,0,0,0-.18,2.38,17.24,17.24,0,0,0,.18,2.39v.58h.08a18.08,18.08,0,0,0,35.68,0h.25v-2.56c0-.13,0-.27,0-.41s0-.27,0-.41V773.09H875l-.13,69.79H875a18.1,18.1,0,0,0,36,0h.11V679.81c0-26.61-6.64-45.83-16.42-59.7l-.17-.63-13.06-19.07s-17.94-24.26-12.12-48.63S899.17,520.7,899.17,520.7Z"/><path class="cls-3" d="M628.84,189.78l-19.08,13.07s-24.27,18-48.66,12.13S530,185.13,530,185.13V366.27l10.55-18.71s17-22.11,48-12.43a67.48,67.48,0,0,1,22.24,11.5c10.39,8.35,25.08,18.38,35.1,22V185.13Z"/><path class="cls-3" d="M750.91,425.36a18.91,18.91,0,0,0,6.25-36.76l-40.07-21.49a6.37,6.37,0,0,1,3-12l172.56-.27a18.1,18.1,0,0,0-1-36.18c-.43,0-.86,0-1.29.07H783.09V306.69l137.14-.33a18.1,18.1,0,0,0,0-36.08l-137.69-.17V257.78H891.21a16.82,16.82,0,0,0,4.77,0h.58v-.09a18.09,18.09,0,0,0,0-35.7l-2.55-.25-.41,0-.42,0H782.54V209.31l69.83.13v-.15a18.28,18.28,0,0,0,16.13-18c.32-16-16.13-18.12-16.13-18.12H689.21c-101,0-95.57,95.57-95.57,95.57,0,55.94,52.25,99.84,52.25,99.84l92.39,51.91A18.79,18.79,0,0,0,750.91,425.36Z"/><path class="cls-6" d="M919,270.58v-.17H781.44V258.08H890a18.93,18.93,0,0,0,2.39.17,18.65,18.65,0,0,0,2.38-.17h.58V258a18.08,18.08,0,0,0,0-35.68v-.24h-2.55l-.41,0-.41,0H781.44V209.64l69.77.13v-.14a18.1,18.1,0,0,0,0-36v-.12h-163c-26.6,0-45.81,6.65-59.68,16.43l-.63.17-19.07,13.06s-24.24,17.94-48.61,12.11c-19.23-4.59-27.45-20.51-30.07-27V40.38H240.06c-110.92,0-200.85,90-200.85,200.92V520.83H530.13V364.73l9.54-16.92s17-22.09,48-12.42a67.48,67.48,0,0,1,22.22,11.49c10.38,8.35,25,18.37,35.07,21.95l92.31,51.88a18.89,18.89,0,1,0,18.85-31.88l0-.07-40.07-21.41a6.37,6.37,0,0,1,3-12h172.4v-.27a18.09,18.09,0,0,0-1-36.16c-.44,0-.87,0-1.29.06H782V307H919v-.33a18.09,18.09,0,0,0,0-36.06Z"/><path class="cls-3" d="M190.06,442.14l13.07,19.08s18,24.27,12.12,48.65S185.4,541,185.4,541H366.54l-18.7-10.54s-22.11-17-12.43-48a67.48,67.48,0,0,1,11.5-22.24c8.35-10.38,18.37-25.07,22-35.1H185.4Z"/><path class="cls-3" d="M425.64,320.06a18.91,18.91,0,0,0-36.77-6.24l-21.48,40.07a6.37,6.37,0,0,1-12-3l-.28-172.56a18.1,18.1,0,0,0-36.18,1c0,.44,0,.87.07,1.29V287.88H307l-.33-137.14a18.1,18.1,0,0,0-36.08,0l-.18,137.69H258.05V179.76a18.65,18.65,0,0,0,.17-2.38,18.93,18.93,0,0,0-.17-2.39v-.58H258a18.09,18.09,0,0,0-35.7,0L222,177c0,.14,0,.27,0,.41s0,.27,0,.41V288.43H209.58l.13-69.83h-.14a18.26,18.26,0,0,0-18-16.12c-16-.33-18.12,16.12-18.12,16.12V381.77c0,101,95.57,95.57,95.57,95.57,56,0,99.85-52.26,99.85-52.26l51.91-92.39A18.84,18.84,0,0,0,425.64,320.06Z"/><path class="cls-2" d="M406.65,301.16a18.9,18.9,0,0,0-17.83,12.67l-.06,0-21.41,40.08a6.37,6.37,0,0,1-12-3V178.42h-.28a18.09,18.09,0,0,0-36.16,1c0,.44,0,.87.07,1.3V287.91H307V150.85h-.33a18.09,18.09,0,0,0-36.06,0h-.17V288.46H258.07V179.86a17.24,17.24,0,0,0,.18-2.39,17,17,0,0,0-.18-2.38v-.58H258a18.08,18.08,0,0,0-35.68,0h-.24v2.55c0,.14,0,.27,0,.41s0,.28,0,.41V288.46H209.64l.13-69.79h-.15a18.1,18.1,0,0,0-36,0h-.11V381.74c0,26.62,6.64,45.83,16.42,59.71l.17.63,13.06,19.07s17.94,24.25,12.12,48.62-29.83,31.09-29.83,31.09h181l-18.69-10.55s-22.1-16.95-12.42-48a67.34,67.34,0,0,1,11.49-22.23c8.35-10.38,18.37-25.06,21.95-35.08l51.88-92.34a18.89,18.89,0,0,0-14.06-31.53Z"/><rect class="cls-2" x="39.21" y="540.47" width="490.79" height="24"/></g></svg>