<svg width="22" height="22" viewBox="0 0 22 22" fill="none" xmlns="http://www.w3.org/2000/svg">
<path d="M21.7668 10.4334L18.4924 7.15811C18.1804 6.84659 18.2777 6.51352 18.7075 6.41672C18.7075 6.41672 19.0626 6.33664 19.5 5.89929C20.4389 4.96079 20.438 3.4371 19.5 2.49992C18.5606 1.56098 17.0391 1.56098 16.0997 2.49992C15.6624 2.93727 15.5827 3.2919 15.5827 3.2919C15.4859 3.72266 15.152 3.81901 14.8409 3.50662L11.5665 0.233965C11.255 -0.0779884 10.7446 -0.0779884 10.4331 0.233965L7.1591 3.5075C6.84802 3.81989 6.94438 4.15385 7.37425 4.2502C7.37425 4.2502 7.72977 4.33028 8.16668 4.76675C9.1043 5.70526 9.10562 7.22807 8.16668 8.16745C7.22818 9.10595 5.70449 9.10507 4.76686 8.16745C4.32995 7.72965 4.24988 7.37458 4.24988 7.37458C4.15352 6.94427 3.81912 6.84791 3.50761 7.15943L0.233635 10.4338C-0.0778784 10.7454 -0.0778784 11.2553 0.233635 11.5664L3.50761 14.8408C3.81912 15.1523 3.72233 15.4863 3.29245 15.5831C3.29245 15.5831 2.93738 15.6636 2.50003 16.1005C1.56109 17.0399 1.56109 18.5618 2.50003 19.5003C3.43853 20.4388 4.9609 20.4397 5.89984 19.5003C6.33763 19.0629 6.41683 18.7083 6.41683 18.7083C6.51363 18.2776 6.84758 18.1812 7.15866 18.494L10.4331 21.7667C10.7446 22.0786 11.255 22.0786 11.5665 21.7667L14.8413 18.4932C15.1529 18.1816 15.0556 17.8468 14.6262 17.7509C14.6262 17.7509 14.2702 17.6708 13.8333 17.2343C12.8939 16.295 12.8944 14.773 13.8333 13.8337C14.7718 12.8952 16.2942 12.8938 17.2331 13.8337C17.6705 14.271 17.7497 14.6265 17.7497 14.6265C17.8469 15.0573 18.1804 15.1541 18.4924 14.8426L21.7668 11.5673C22.0779 11.2549 22.0779 10.7449 21.7668 10.4334Z" fill="#37BCFF"/>
</svg>
